<svg width="64" height="64" viewBox="0 0 64 64" fill="none" xmlns="http://www.w3.org/2000/svg">
<path d="M41.2322 37.6961C43.5843 37.6961 45.9101 38.2844 47.9581 39.3974C48.3301 39.5979 48.6714 39.8368 49.0199 40.0667C52.3811 33.4869 54.155 26.5278 54.155 19.7388C54.155 19.3573 54.155 18.9634 54.1428 18.5696C54.1182 18.0158 53.7243 17.5358 53.1704 17.4127C45.7366 15.7881 39.0043 11.7634 33.712 5.78193L32.9243 4.88342C32.6904 4.61268 32.3582 4.465 32.0012 4.465C31.6197 4.41579 31.3243 4.60036 31.0904 4.85885L29.8843 6.1881C24.8627 11.7142 18.5366 15.5296 11.5951 17.2281L10.7951 17.425C10.2535 17.5481 9.87199 18.0281 9.85967 18.5819C9.41661 35.8865 19.632 48.3296 24.0382 52.8834C25.2311 54.1082 26.5611 55.3256 27.8258 56.3319C27.3514 54.9011 27.0783 53.3957 27.0783 51.8499C27.0783 44.0452 33.4275 37.6961 41.2322 37.6961Z" fill="url(#paint0_linear_228_7991)"/>
<path d="M46.7822 41.5613C45.0837 40.6382 43.1637 40.1582 41.2314 40.1582C34.7822 40.1582 29.5391 45.4013 29.5391 51.8505C29.5391 54.029 30.1299 56.1582 31.2622 57.9797C33.416 61.4628 37.133 63.5428 41.2314 63.5428C47.6683 63.5428 52.9237 58.2997 52.9237 51.8505C52.9237 47.5428 50.5729 43.6043 46.7822 41.5613ZM47.2196 50.2937L38.0747 57.4103L34.9527 52.5269C34.5862 51.9542 34.7538 51.1934 35.3265 50.8274C35.8999 50.4608 36.6613 50.6297 37.0261 51.2012L38.6937 53.8093L45.7076 48.3514C46.243 47.9337 47.0171 48.0293 47.4347 48.5666C47.8524 49.1032 47.7556 49.8767 47.2196 50.2937Z" fill="url(#paint1_linear_228_7991)"/>
<defs>
<linearGradient id="paint0_linear_228_7991" x1="32.0004" y1="4.45703" x2="32.0004" y2="56.3319" gradientUnits="userSpaceOnUse">
<stop stop-color="#EF8080"/>
<stop offset="1" stop-color="#F0145A"/>
</linearGradient>
<linearGradient id="paint1_linear_228_7991" x1="41.2314" y1="40.1582" x2="41.2314" y2="63.5428" gradientUnits="userSpaceOnUse">
<stop stop-color="#EF8080"/>
<stop offset="1" stop-color="#F0145A"/>
</linearGradient>
</defs>
</svg>
